<svg id="Icon_ionic-ios-cart" data-name="Icon ionic-ios-cart" xmlns="http://www.w3.org/2000/svg" viewBox="0 0 163.386 150.913">
  <path id="Path_1" data-name="Path 1" d="M28.422,37.555a9.43,9.43,0,1,1-9.43-9.43,9.43,9.43,0,0,1,9.43,9.43Z" transform="translate(24.973 103.929)" fill="currentColor"/>
  <path id="Path_2" data-name="Path 2" d="M44.207,37.555a9.43,9.43,0,1,1-9.43-9.43,9.43,9.43,0,0,1,9.43,9.43Z" transform="translate(97.393 103.929)" fill="currentColor"/>
  <path id="Path_3" data-name="Path 3" d="M166.709,31.328a2.31,2.31,0,0,0-2.043-1.65L36.7,17.3a3.939,3.939,0,0,1-2.947-1.847A40.008,40.008,0,0,0,28.96,8.147C25.934,4.454,20.237,4.572,9.786,4.493c-3.536-.039-6.4,2.043-6.4,5.54,0,3.418,2.711,5.54,6.129,5.54s8.369.2,10.215.747,3.34,3.575,3.89,6.208a.144.144,0,0,0,.039.118c.079.471.786,4.008.786,4.047l15.716,83.137a30.555,30.555,0,0,0,5.7,14.026,15.679,15.679,0,0,0,12.926,6.365H151.74a5.585,5.585,0,0,0,5.658-5.265,5.474,5.474,0,0,0-5.5-5.736H58.7a4.566,4.566,0,0,1-3.261-1.1c-1.375-1.179-3.261-3.89-4.518-10.215l-1.689-9.312a.215.215,0,0,1,.157-.236L158.5,79.891a2.3,2.3,0,0,0,1.925-2.043l6.286-45.5A2.241,2.241,0,0,0,166.709,31.328Z" transform="translate(-3.382 -4.493)" fill="currentColor"/>
</svg>
